# xmcd
#
# Track frame offsets:
#	150
#	11125
#	28885
#	45417
#	59403
#	74521
#	87490
#	99458
#	121505
#	134269
#	148301
#
# Disc length: 2149 seconds
#
# Revision: 0
# Processed by: cddbd v1.5.2PL0 Copyright (c) Steve Scherf et al.
# Submitted via: dBpowerAMP V4.0
#
DISCID=9d08630b
DTITLE=Porter Wagoner - Best Of Grand Old Gospel 2008 [CD1]
DYEAR=2007
DGENRE=Country
TTITLE0=Drifting Too Far From The Shore
TTITLE1=When I Lay My Burdens Down
TTITLE2=Frog For The Water
TTITLE3=He Will Set Your Fields On Fire
TTITLE4=When The Silver Eagle Meets The Great Speckled Bird
TTITLE5=Meeting In The Air
TTITLE6=This World Can't Stand Long
TTITLE7=Model Church
TTITLE8=My Closest Neighbor
TTITLE9=What A Friend We Have In Jesus
TTITLE10=Old Log Cabin For Sale
EXTD=
EXTT0=
EXTT1=
EXTT2=
EXTT3=
EXTT4=
EXTT5=
EXTT6=
EXTT7=
EXTT8=
EXTT9=
EXTT10=
PLAYORDER=
